<svg xmlns="http://www.w3.org/2000/svg" xmlns:xlink="http://www.w3.org/1999/xlink" width="1310" height="711.3"><rect width="1310" height="711.3" rx="5" ry="5" class="a"/><svg y="0%" x="0%"><circle cx="20" cy="20" r="6" fill="#ff5f58"/><circle cx="40" cy="20" r="6" fill="#ffbd2e"/><circle cx="60" cy="20" r="6" fill="#18c132"/></svg><svg height="651.3" viewBox="0 0 127 65.13" width="1270" x="15" xmlns="http://www.w3.org/2000/svg" xmlns:xlink="http://www.w3.org/1999/xlink" y="50"><style>@keyframes o{0%{transform:translateX(0)}.36%{transform:translateX(-127px)}1.73%{transform:translateX(-254px)}2.26%{transform:translateX(-381px)}2.97%{transform:translateX(-508px)}3.53%{transform:translateX(-635px)}4.04%{transform:translateX(-762px)}4.89%{transform:translateX(-889px)}5.44%{transform:translateX(-1016px)}8.7%{transform:translateX(-1143px)}9.58%{transform:translateX(-1270px)}9.94%{transform:translateX(-1397px)}11.38%{transform:translateX(-1524px)}12.6%{transform:translateX(-1651px)}12.87%{transform:translateX(-1778px)}13.04%{transform:translateX(-1905px)}13.4%{transform:translateX(-2032px)}15.33%{transform:translateX(-2159px)}15.58%{transform:translateX(-2286px)}16.06%{transform:translateX(-2413px)}16.33%{transform:translateX(-2540px)}18.24%{transform:translateX(-2794px)}18.26%{transform:translateX(-2921px)}24.34%{transform:translateX(-3175px)}26.91%{transform:translateX(-3302px)}27.07%{transform:translateX(-3810px)}44.53%{transform:translateX(-4064px)}49.46%{transform:translateX(-4318px)}49.78%{transform:translateX(-4445px)}50.28%{transform:translateX(-4572px)}53.62%{transform:translateX(-4699px)}54.61%{transform:translateX(-4953px)}56.68%{transform:translateX(-5207px)}66.26%{transform:translateX(-5334px)}94.07%{transform:translateX(-5461px)}94.12%{transform:translateX(-5588px)}94.25%{transform:translateX(-5715px)}to{transform:translateX(-5842px)}}.a{fill:#282d35}.f{fill:#b9c0cb;white-space:pre}.g{fill:#71bef2}.h{white-space:pre}.i{fill:#a8cc8c}.j,.k{fill:#71bef2;white-space:pre}.k{fill:#a8cc8c}</style><g font-family="Monaco,Consolas,Menlo,'Bitstream Vera Sans Mono','Powerline Symbols',monospace" font-size="1.67"><defs><symbol id="1">0<text y="1.67" class="f">edoardottt@edoardottt</text><path class="g" d="M23.046 0h20v2.171h-20z"/><text x="23.046" y="1.67" class="h"> ~/github/csprecon</text><path class="i" d="M43.086 0h1v2.171h-1z"/><text x="43.086" y="1.67" class="j"></text><path class="i" d="M44.088 0h8v2.171h-8z"/><text x="44.088" y="1.67" class="h"> main</text><text x="52.104" y="1.67" class="k"></text><text x="54.108" y="1.67" class="f">csprecon</text><text x="63.126" y="1.67" class="f">-l</text></symbol><symbol id="2">0<text y="1.67" class="f">edoardottt@edoardottt</text><path class="g" d="M23.046 0h20v2.171h-20z"/><text x="23.046" y="1.67" class="h"> ~/github/csprecon</text><path class="i" d="M43.086 0h1v2.171h-1z"/><text x="43.086" y="1.67" class="j"></text><path class="i" d="M44.088 0h8v2.171h-8z"/><text x="44.088" y="1.67" class="h"> main</text><text x="52.104" y="1.67" class="k"></text><text x="54.108" y="1.67" class="f">csprecon</text><text x="63.126" y="1.67" class="f">-l</text><text x="66.132" y="1.67" class="f">/tmp/test.txt</text></symbol><symbol id="3"><text x="4.008" y="1.67" class="f">______________</text><text x="20.04" y="1.67" class="f">________</text><text x="30.06" y="1.67" class="f">_________</text><text x="41.082" y="1.67" class="f">____</text></symbol><symbol id="4"><text x="3.006" y="1.67" class="f">/</text><text x="5.01" y="1.67" class="f">___/</text><text x="10.02" y="1.67" class="f">___/</text><text x="15.03" y="1.67" class="f">__</text><text x="18.036" y="1.67" class="f">\/</text><text x="21.042" y="1.67" class="f">___/</text><text x="26.052" y="1.67" class="f">_</text><text x="28.056" y="1.67" class="f">\/</text><text x="31.062" y="1.67" class="f">___/</text><text x="36.072" y="1.67" class="f">__</text><text x="39.078" y="1.67" class="f">\/</text><text x="42.084" y="1.67" class="f">__</text><text x="45.09" y="1.67" class="f">\</text></symbol><symbol id="5"><text x="2.004" y="1.67" class="f">/</text><text x="4.008" y="1.67" class="f">/__(__</text><text x="12.024" y="1.67" class="f">)</text><text x="14.028" y="1.67" class="f">/_/</text><text x="18.036" y="1.67" class="f">/</text><text x="20.04" y="1.67" class="f">/</text><text x="23.046" y="1.67" class="f">/</text><text x="26.052" y="1.67" class="f">__/</text><text x="30.06" y="1.67" class="f">/__/</text><text x="35.07" y="1.67" class="f">/_/</text><text x="39.078" y="1.67" class="f">/</text><text x="41.082" y="1.67" class="f">/</text><text x="43.086" y="1.67" class="f">/</text><text x="45.09" y="1.67" class="f">/</text></symbol><symbol id="6"><text x="2.004" y="1.67" class="f">\___/____/</text><text x="13.026" y="1.67" class="f">.___/_/</text><text x="23.046" y="1.67" class="f">\___/\___/\____/_/</text><text x="42.084" y="1.67" class="f">/_/</text></symbol><symbol id="7"><text x="10.02" y="1.67" class="f">/_/</text><text x="48.096" y="1.67" class="f">v0.0.1</text></symbol><symbol id="8"><text x="16.032" y="1.67" class="f">@edoardottt,</text><text x="29.058" y="1.67" class="f">https://www.edoardoottavianelli.it/</text></symbol><symbol id="9"><text x="29.058" y="1.67" class="f">https://github.com/edoardottt/</text></symbol><symbol id="10"><text y="1.67" class="f">players.brightcove.net</text></symbol><symbol id="11"><text y="1.67" class="f">*.demdex.net</text></symbol><symbol id="12"><text y="1.67" class="f">collect.tealiumiq.com</text></symbol><symbol id="13"><text y="1.67" class="f">hsbcglobalcommon.sc.omtrdc.net</text></symbol><symbol id="14"><text y="1.67" class="f">*.twimg.com</text></symbol><symbol id="15"><text y="1.67" class="f">cm.everesttech.net</text></symbol><symbol id="16"><text y="1.67" class="f">sadmin.brightcove.com</text></symbol><symbol id="17"><text y="1.67" class="f">assets.adobedtm.com</text></symbol><symbol id="18"><text y="1.67" class="f">vjs.zencdn.net</text></symbol><symbol id="19"><text y="1.67" class="f">*.brightcove.com</text></symbol><symbol id="20"><text y="1.67" class="f">brightcove04pmdo-a.akamaihd.net</text></symbol><symbol id="21"><text y="1.67" class="f">tags.tiqcdn.com</text></symbol><symbol id="22"><text y="1.67" class="f">pbs.twimg.com</text></symbol><symbol id="23"><text y="1.67" class="f">www.hsbc.com</text></symbol><symbol id="24"><text y="1.67" class="f">*.boltdns.net</text></symbol><symbol id="25"><text y="1.67" class="f">*.brightcovecdn.com</text></symbol><symbol id="26"><text y="1.67" class="f">f1.media.brightcove.com</text></symbol><symbol id="27"><text y="1.67" class="f">edge.api.brightcove.com</text></symbol><symbol id="28"><text y="1.67" class="f">secure.brightcove.com</text></symbol><symbol id="29"><text y="1.67" class="f">bcsecure01-a.akamaihd.net</text></symbol><symbol id="30"><text y="1.67" class="f">metrics.brightcove.com</text></symbol><symbol id="31"><text y="1.67" class="f">*.dell.com</text></symbol><symbol id="32"><text y="1.67" class="f">*.usajobs.gov</text></symbol><symbol id="33"><text y="1.67" class="f">*.virtualearth.net</text></symbol><symbol id="34"><text y="1.67" class="f">device.4seeresults.com</text></symbol><symbol id="35"><text y="1.67" class="f">cdn.ampproject.org</text></symbol><symbol id="36"><text y="1.67" class="f">go.usa.gov</text></symbol><symbol id="37"><text y="1.67" class="f">survey.answerscloud.com</text></symbol><symbol id="38"><text y="1.67" class="f">survey.foreseeresults.com</text></symbol><symbol id="39"><text y="1.67" class="f">gateway.answerscloud.com</text></symbol><symbol id="40"><text y="1.67" class="f">*.analytics.google.com</text></symbol><symbol id="41"><text y="1.67" class="f">*.foresee.com</text></symbol><symbol id="42"><text y="1.67" class="f">*.bing.com</text></symbol><symbol id="43"><text y="1.67" class="f">ssl.google-analytics.com</text></symbol><symbol id="44"><text y="1.67" class="f">dap.digitalgov.gov</text></symbol><symbol id="45"><text y="1.67" class="f">*.google-analytics.com</text></symbol><symbol id="46"><text y="1.67" class="f">*.googletagmanager.com</text></symbol><symbol id="47"><text y="1.67" class="f">www.google-analytics.com</text></symbol><symbol id="48"><text y="1.67" class="f">*.dev.virtualearth.net</text></symbol><symbol id="49"><text y="1.67" class="f">gateway.foresee.com</text></symbol><symbol id="50"><text y="1.67" class="f">cxsurvey.foresee.com2</text></symbol><symbol id="51"><text y="1.67" class="f">hoover.foresee.com</text></symbol><symbol id="52"><text y="1.67" class="f">data.usajobs.gov</text></symbol><symbol id="53"><text y="1.67" class="f">*.healthifyme.com</text></symbol><symbol id="54"><text y="1.67" class="f">analytics.twitter.com</text></symbol><symbol id="55"><text y="1.67" class="f">*.taboola.com</text></symbol><symbol id="56"><text y="1.67" class="f">js.hscollectedforms.net</text></symbol><symbol id="57"><text y="1.67" class="f">connect.facebook.net</text></symbol><symbol id="58"><text y="1.67" class="f">cdn.segment.com</text></symbol><symbol id="59"><text y="1.67" class="f">static.ads-twitter.com</text></symbol><symbol id="60"><text y="1.67" class="f">forms.hubspot.com</text></symbol><symbol id="61"><text y="1.67" class="f">api.segment.io</text></symbol><symbol id="62"><text y="1.67" class="f">cds.taboola.com</text></symbol><symbol id="63"><text y="1.67" class="f">p.adsymptotic.com</text></symbol><symbol id="64"><text y="1.67" class="f">p.typekit.net</text></symbol><symbol id="65"><text y="1.67" class="f">forms.hsforms.com</text></symbol><symbol id="66"><text y="1.67" class="f">www.googleadservices.com</text></symbol><symbol id="67"><text y="1.67" class="f">track.hubspot.com</text></symbol><symbol id="68"><text y="1.67" class="f">*.sentry.io</text></symbol><symbol id="69"><text y="1.67" class="f">js.hs-analytics.net</text></symbol><symbol id="70"><text y="1.67" class="f">healthifyme.imgix.net</text></symbol><symbol id="71"><text y="1.67" class="f">www.googletagmanager.com</text></symbol><symbol id="72"><text y="1.67" class="f">*.hs-scripts.com</text></symbol><symbol id="73"><text y="1.67" class="f">docusign.okta.com</text></symbol><symbol id="74"><text y="1.67" class="f">pendo-static-5391521872216064.storage.googleapis.com</text></symbol><symbol id="75"><text y="1.67" class="f">*.oktacdn.com</text></symbol><symbol id="76"><text y="1.67" class="f">docusign-admin.okta.com</text></symbol><symbol id="77"><text y="1.67" class="f">*.mapbox.com</text></symbol><symbol id="78"><text y="1.67" class="f">fonts.gstatic.com</text></symbol><symbol id="79"><text y="1.67" class="f">*.mixpanel.com</text></symbol><symbol id="80"><text y="1.67" class="f">pendo-static-5634101834153984.storage.googleapis.com</text></symbol><symbol id="81"><text y="1.67" class="f">docusign.kerberos.okta.com</text></symbol><symbol id="82"><text y="1.67" class="f">app.pendo.io</text></symbol><symbol id="83"><text y="1.67" class="f">docusign.mtls.okta.com</text></symbol><symbol id="84"><text y="1.67" class="f">oinmanager.okta.com</text></symbol><symbol id="85"><text y="1.67" class="f">*.tiles.mapbox.com</text></symbol><symbol id="86"><text y="1.67" class="f">cdn.pendo.io</text></symbol><symbol id="87"><text y="1.67" class="f">EUW1-OKTA-W01.docusignhq.com</text></symbol><symbol id="88"><text y="1.67" class="f">data.pendo.io</text></symbol><symbol id="89"><text y="1.67" class="f">login.okta.com</text></symbol><symbol id="90"><text y="1.67" class="f">amexgbt.okta.com</text></symbol><symbol id="91"><text y="1.67" class="f">amexgbt-admin.okta.com</text></symbol><symbol id="92"><text y="1.67" class="f">amexgbt.kerberos.okta.com</text></symbol><symbol id="93"><text y="1.67" class="f">amexgbt.mtls.okta.com</text></symbol><symbol id="94"><text y="1.67" class="f">userservices.vip.symantec.com</text></symbol><symbol id="95"><text y="1.67" class="f">*.deutsche-bank.de</text></symbol><symbol id="96"><text y="1.67" class="f">cdn.heapanalytics.com</text></symbol><symbol id="97"><text y="1.67" class="f">heapanalytics.com</text></symbol><symbol id="98"><text y="1.67" class="f">js.driftt.com</text></symbol><symbol id="99"><text y="1.67" class="f">fonts.google.com</text></symbol><symbol id="100"><text y="1.67" class="f">youtube.com</text></symbol><symbol id="101"><text y="1.67" class="f">widget.drift.com</text></symbol><symbol id="102"><text y="1.67" class="f">*.appcues.com</text></symbol><symbol id="103"><text y="1.67" class="f">*.appcues.net</text></symbol><symbol id="104"><text y="1.67" class="f">fonts.googleapis.com</text></symbol><symbol id="105"><text y="1.67" class="f">www.youtube-nocookie.com</text></symbol><symbol id="106"><text y="1.67" class="f">www.youtube.com</text></symbol><symbol id="107"><text y="1.67" class="f">player.vimeo.com</text></symbol><symbol id="108"><text y="1.67" class="f">rakuten.okta.com</text></symbol><symbol id="109"><text y="1.67" class="f">rakuten-admin.okta.com</text></symbol><symbol id="110"><text y="1.67" class="f">rakuten.kerberos.okta.com</text></symbol><symbol id="111"><text y="1.67" class="f">*.authenticatorlocalprod.com:8769</text></symbol><symbol id="112"><text y="1.67" class="f">*.authenticatorlocalprod.com:65111</text></symbol><symbol id="113"><text y="1.67" class="f">*.authenticatorlocalprod.com:65141</text></symbol><symbol id="114"><text y="1.67" class="f">*.authenticatorlocalprod.com:65131</text></symbol><symbol id="115"><text y="1.67" class="f">*.authenticatorlocalprod.com:65121</text></symbol><symbol id="116"><text y="1.67" class="f">*.authenticatorlocalprod.com:65151</text></symbol><symbol id="117"><text y="1.67" class="f">seek.okta.com</text></symbol><symbol id="118"><text y="1.67" class="f">seek-admin.okta.com</text></symbol><symbol id="119"><text y="1.67" class="f">seek.kerberos.okta.com</text></symbol><symbol id="120"><text y="1.67" class="f">^C</text></symbol><symbol id="121">0<text y="1.67" class="f"></text>0<text x="1.002" y="1.67" style="white-space:pre" fill="#e88388">✘</text>0<text x="2.004" y="1.67" class="f">edoardottt@edoardottt</text><path class="g" d="M25.05 0h20v2.171h-20z"/><text x="25.05" y="1.67" class="h"> ~/github/csprecon</text><path class="i" d="M45.09 0h1v2.171h-1z"/><text x="45.09" y="1.67" class="j"></text><path class="i" d="M46.092 0h8v2.171h-8z"/><text x="46.092" y="1.67" class="h"> main</text><text x="54.108" y="1.67" class="k"></text></symbol><symbol id="a"><path fill="transparent" d="M0 0h127v30H0z"/></symbol><symbol id="b"><path fill="#6f7683" d="M0 0h1.102v2.171H0z"/></symbol></defs><path class="a" d="M0 0h127v65.13H0z"/><g style="animation-duration:28.346755s;animation-iteration-count:infinite;animation-name:o;animation-timing-function:steps(1,end)"><svg width="5969"><svg><use xlink:href="#a"/><use xlink:href="#b" x="-.004"/></svg><svg x="127"><use xlink:href="#a"/><use xlink:href="#b" x="53.996"/>0<text y="1.67" class="f">edoardottt@edoardottt</text><path class="g" d="M23.046 0h20v2.171h-20z"/><text x="23.046" y="1.67" class="h"> ~/github/csprecon</text><path class="i" d="M43.086 0h1v2.171h-1z"/><text x="43.086" y="1.67" class="j"></text><path class="i" d="M44.088 0h8v2.171h-8z"/><text x="44.088" y="1.67" class="h"> main</text><text x="52.104" y="1.67" class="k"></text></svg><svg x="254"><use xlink:href="#a"/><use xlink:href="#b" x="54.996"/>0<text y="1.67" class="f">edoardottt@edoardottt</text><path class="g" d="M23.046 0h20v2.171h-20z"/><text x="23.046" y="1.67" class="h"> ~/github/csprecon</text><path class="i" d="M43.086 0h1v2.171h-1z"/><text x="43.086" y="1.67" class="j"></text><path class="i" d="M44.088 0h8v2.171h-8z"/><text x="44.088" y="1.67" class="h"> main</text><text x="52.104" y="1.67" class="k"></text><text x="54.108" y="1.67" class="f">c</text></svg><svg x="381"><use xlink:href="#a"/><use xlink:href="#b" x="55.996"/>0<text y="1.67" class="f">edoardottt@edoardottt</text><path class="g" d="M23.046 0h20v2.171h-20z"/><text x="23.046" y="1.67" class="h"> ~/github/csprecon</text><path class="i" d="M43.086 0h1v2.171h-1z"/><text x="43.086" y="1.67" class="j"></text><path class="i" d="M44.088 0h8v2.171h-8z"/><text x="44.088" y="1.67" class="h"> main</text><text x="52.104" y="1.67" class="k"></text><text x="54.108" y="1.67" class="f">cs</text></svg><svg x="508"><use xlink:href="#a"/><use xlink:href="#b" x="56.996"/>0<text y="1.67" class="f">edoardottt@edoardottt</text><path class="g" d="M23.046 0h20v2.171h-20z"/><text x="23.046" y="1.67" class="h"> ~/github/csprecon</text><path class="i" d="M43.086 0h1v2.171h-1z"/><text x="43.086" y="1.67" class="j"></text><path class="i" d="M44.088 0h8v2.171h-8z"/><text x="44.088" y="1.67" class="h"> main</text><text x="52.104" y="1.67" class="k"></text><text x="54.108" y="1.67" class="f">csp</text></svg><svg x="635"><use xlink:href="#a"/><use xlink:href="#b" x="57.996"/>0<text y="1.67" class="f">edoardottt@edoardottt</text><path class="g" d="M23.046 0h20v2.171h-20z"/><text x="23.046" y="1.67" class="h"> ~/github/csprecon</text><path class="i" d="M43.086 0h1v2.171h-1z"/><text x="43.086" y="1.67" class="j"></text><path class="i" d="M44.088 0h8v2.171h-8z"/><text x="44.088" y="1.67" class="h"> main</text><text x="52.104" y="1.67" class="k"></text><text x="54.108" y="1.67" class="f">cspr</text></svg><svg x="762"><use xlink:href="#a"/><use xlink:href="#b" x="58.996"/>0<text y="1.67" class="f">edoardottt@edoardottt</text><path class="g" d="M23.046 0h20v2.171h-20z"/><text x="23.046" y="1.67" class="h"> ~/github/csprecon</text><path class="i" d="M43.086 0h1v2.171h-1z"/><text x="43.086" y="1.67" class="j"></text><path class="i" d="M44.088 0h8v2.171h-8z"/><text x="44.088" y="1.67" class="h"> main</text><text x="52.104" y="1.67" class="k"></text><text x="54.108" y="1.67" class="f">cspre</text></svg><svg x="889"><use xlink:href="#a"/><use xlink:href="#b" x="59.996"/>0<text y="1.67" class="f">edoardottt@edoardottt</text><path class="g" d="M23.046 0h20v2.171h-20z"/><text x="23.046" y="1.67" class="h"> ~/github/csprecon</text><path class="i" d="M43.086 0h1v2.171h-1z"/><text x="43.086" y="1.67" class="j"></text><path class="i" d="M44.088 0h8v2.171h-8z"/><text x="44.088" y="1.67" class="h"> main</text><text x="52.104" y="1.67" class="k"></text><text x="54.108" y="1.67" class="f">csprec</text></svg><svg x="1016"><use xlink:href="#a"/><use xlink:href="#b" x="62.996"/>0<text y="1.67" class="f">edoardottt@edoardottt</text><path class="g" d="M23.046 0h20v2.171h-20z"/><text x="23.046" y="1.67" class="h"> ~/github/csprecon</text><path class="i" d="M43.086 0h1v2.171h-1z"/><text x="43.086" y="1.67" class="j"></text><path class="i" d="M44.088 0h8v2.171h-8z"/><text x="44.088" y="1.67" class="h"> main</text><text x="52.104" y="1.67" class="k"></text><text x="54.108" y="1.67" class="f">csprecon</text></svg><svg x="1143"><use xlink:href="#a"/><use xlink:href="#b" x="63.996"/>0<text y="1.67" class="f">edoardottt@edoardottt</text><path class="g" d="M23.046 0h20v2.171h-20z"/><text x="23.046" y="1.67" class="h"> ~/github/csprecon</text><path class="i" d="M43.086 0h1v2.171h-1z"/><text x="43.086" y="1.67" class="j"></text><path class="i" d="M44.088 0h8v2.171h-8z"/><text x="44.088" y="1.67" class="h"> main</text><text x="52.104" y="1.67" class="k"></text><text x="54.108" y="1.67" class="f">csprecon</text><text x="63.126" y="1.67" class="f">-</text></svg><svg x="1270"><use xlink:href="#a"/><use xlink:href="#b" x="64.996"/><use xlink:href="#1"/></svg><svg x="1397"><use xlink:href="#a"/><use xlink:href="#b" x="65.996"/><use xlink:href="#1"/></svg><svg x="1524"><use xlink:href="#a"/><use xlink:href="#b" x="66.996"/>0<text y="1.67" class="f">edoardottt@edoardottt</text><path class="g" d="M23.046 0h20v2.171h-20z"/><text x="23.046" y="1.67" class="h"> ~/github/csprecon</text><path class="i" d="M43.086 0h1v2.171h-1z"/><text x="43.086" y="1.67" class="j"></text><path class="i" d="M44.088 0h8v2.171h-8z"/><text x="44.088" y="1.67" class="h"> main</text><text x="52.104" y="1.67" class="k"></text><text x="54.108" y="1.67" class="f">csprecon</text><text x="63.126" y="1.67" class="f">-l</text><text x="66.132" y="1.67" class="f">/</text></svg><svg x="1651"><use xlink:href="#a"/><use xlink:href="#b" x="67.996"/>0<text y="1.67" class="f">edoardottt@edoardottt</text><path class="g" d="M23.046 0h20v2.171h-20z"/><text x="23.046" y="1.67" class="h"> ~/github/csprecon</text><path class="i" d="M43.086 0h1v2.171h-1z"/><text x="43.086" y="1.67" class="j"></text><path class="i" d="M44.088 0h8v2.171h-8z"/><text x="44.088" y="1.67" class="h"> main</text><text x="52.104" y="1.67" class="k"></text><text x="54.108" y="1.67" class="f">csprecon</text><text x="63.126" y="1.67" class="f">-l</text><text x="66.132" y="1.67" class="f">/t</text></svg><svg x="1778"><use xlink:href="#a"/><use xlink:href="#b" x="68.996"/>0<text y="1.67" class="f">edoardottt@edoardottt</text><path class="g" d="M23.046 0h20v2.171h-20z"/><text x="23.046" y="1.67" class="h"> ~/github/csprecon</text><path class="i" d="M43.086 0h1v2.171h-1z"/><text x="43.086" y="1.67" class="j"></text><path class="i" d="M44.088 0h8v2.171h-8z"/><text x="44.088" y="1.67" class="h"> main</text><text x="52.104" y="1.67" class="k"></text><text x="54.108" y="1.67" class="f">csprecon</text><text x="63.126" y="1.67" class="f">-l</text><text x="66.132" y="1.67" class="f">/tm</text></svg><svg x="1905"><use xlink:href="#a"/><use xlink:href="#b" x="69.996"/>0<text y="1.67" class="f">edoardottt@edoardottt</text><path class="g" d="M23.046 0h20v2.171h-20z"/><text x="23.046" y="1.67" class="h"> ~/github/csprecon</text><path class="i" d="M43.086 0h1v2.171h-1z"/><text x="43.086" y="1.67" class="j"></text><path class="i" d="M44.088 0h8v2.171h-8z"/><text x="44.088" y="1.67" class="h"> main</text><text x="52.104" y="1.67" class="k"></text><text x="54.108" y="1.67" class="f">csprecon</text><text x="63.126" y="1.67" class="f">-l</text><text x="66.132" y="1.67" class="f">/tmp</text></svg><svg x="2032"><use xlink:href="#a"/><use xlink:href="#b" x="70.996"/>0<text y="1.67" class="f">edoardottt@edoardottt</text><path class="g" d="M23.046 0h20v2.171h-20z"/><text x="23.046" y="1.67" class="h"> ~/github/csprecon</text><path class="i" d="M43.086 0h1v2.171h-1z"/><text x="43.086" y="1.67" class="j"></text><path class="i" d="M44.088 0h8v2.171h-8z"/><text x="44.088" y="1.67" class="h"> main</text><text x="52.104" y="1.67" class="k"></text><text x="54.108" y="1.67" class="f">csprecon</text><text x="63.126" y="1.67" class="f">-l</text><text x="66.132" y="1.67" class="f">/tmp/</text></svg><svg x="2159"><use xlink:href="#a"/><use xlink:href="#b" x="71.996"/>0<text y="1.67" class="f">edoardottt@edoardottt</text><path class="g" d="M23.046 0h20v2.171h-20z"/><text x="23.046" y="1.67" class="h"> ~/github/csprecon</text><path class="i" d="M43.086 0h1v2.171h-1z"/><text x="43.086" y="1.67" class="j"></text><path class="i" d="M44.088 0h8v2.171h-8z"/><text x="44.088" y="1.67" class="h"> main</text><text x="52.104" y="1.67" class="k"></text><text x="54.108" y="1.67" class="f">csprecon</text><text x="63.126" y="1.67" class="f">-l</text><text x="66.132" y="1.67" class="f">/tmp/t</text></svg><svg x="2286"><use xlink:href="#a"/><use xlink:href="#b" x="72.996"/>0<text y="1.67" class="f">edoardottt@edoardottt</text><path class="g" d="M23.046 0h20v2.171h-20z"/><text x="23.046" y="1.67" class="h"> ~/github/csprecon</text><path class="i" d="M43.086 0h1v2.171h-1z"/><text x="43.086" y="1.67" class="j"></text><path class="i" d="M44.088 0h8v2.171h-8z"/><text x="44.088" y="1.67" class="h"> main</text><text x="52.104" y="1.67" class="k"></text><text x="54.108" y="1.67" class="f">csprecon</text><text x="63.126" y="1.67" class="f">-l</text><text x="66.132" y="1.67" class="f">/tmp/te</text></svg><svg x="2413"><use xlink:href="#a"/><use xlink:href="#b" x="73.996"/>0<text y="1.67" class="f">edoardottt@edoardottt</text><path class="g" d="M23.046 0h20v2.171h-20z"/><text x="23.046" y="1.67" class="h"> ~/github/csprecon</text><path class="i" d="M43.086 0h1v2.171h-1z"/><text x="43.086" y="1.67" class="j"></text><path class="i" d="M44.088 0h8v2.171h-8z"/><text x="44.088" y="1.67" class="h"> main</text><text x="52.104" y="1.67" class="k"></text><text x="54.108" y="1.67" class="f">csprecon</text><text x="63.126" y="1.67" class="f">-l</text><text x="66.132" y="1.67" class="f">/tmp/tes</text></svg><svg x="2540"><use xlink:href="#a"/><use xlink:href="#b" x="79.996"/><use xlink:href="#2"/></svg><svg x="2667"><use xlink:href="#a"/><use xlink:href="#b" x="-.004" y="2.146"/><use xlink:href="#2"/></svg><svg x="2794"><use xlink:href="#a"/><use xlink:href="#b" x="-.004" y="2.146"/><use xlink:href="#2"/></svg><svg x="2921"><use xlink:href="#a"/><use xlink:href="#b" x="-.004" y="21.685"/><use xlink:href="#2"/><use xlink:href="#3" y="2.171"/><use xlink:href="#4" y="4.342"/><use xlink:href="#5" y="6.513"/><use xlink:href="#6" y="8.684"/><use xlink:href="#7" y="10.855"/><use xlink:href="#8" y="15.197"/><use xlink:href="#9" y="17.368"/></svg><svg x="3048"><use xlink:href="#a"/><use xlink:href="#b" x="18.996" y="36.882"/><use xlink:href="#2"/><use xlink:href="#3" y="2.171"/><use xlink:href="#4" y="4.342"/><use xlink:href="#5" y="6.513"/><use xlink:href="#6" y="8.684"/><use xlink:href="#7" y="10.855"/><use xlink:href="#8" y="15.197"/><use xlink:href="#9" y="17.368"/><use xlink:href="#10" y="21.71"/><use xlink:href="#11" y="23.881"/><use xlink:href="#12" y="26.052"/><use xlink:href="#13" y="28.223"/><use xlink:href="#14" y="30.394"/><use xlink:href="#15" y="32.565"/><use xlink:href="#16" y="34.736"/><use xlink:href="#17" y="36.907"/></svg><svg x="3175"><use xlink:href="#a"/><use xlink:href="#b" x="-.004" y="62.934"/><use xlink:href="#4"/><use xlink:href="#5" y="2.171"/><use xlink:href="#6" y="4.342"/><use xlink:href="#7" y="6.513"/><use xlink:href="#8" y="10.855"/><use xlink:href="#9" y="13.026"/><use xlink:href="#10" y="17.368"/><use xlink:href="#11" y="19.539"/><use xlink:href="#12" y="21.71"/><use xlink:href="#13" y="23.881"/><use xlink:href="#14" y="26.052"/><use xlink:href="#15" y="28.223"/><use xlink:href="#16" y="30.394"/><use xlink:href="#17" y="32.565"/><use xlink:href="#18" y="34.736"/><use xlink:href="#19" y="36.907"/><use xlink:href="#20" y="39.078"/><use xlink:href="#21" y="41.249"/><use xlink:href="#22" y="43.42"/><use xlink:href="#23" y="45.591"/><use xlink:href="#24" y="47.762"/><use xlink:href="#25" y="49.933"/><use xlink:href="#26" y="52.104"/><use xlink:href="#27" y="54.275"/><use xlink:href="#28" y="56.446"/><use xlink:href="#29" y="58.617"/><use xlink:href="#30" y="60.788"/></svg><svg x="3302"><use xlink:href="#a"/><use xlink:href="#b" x="-.004" y="62.934"/><use xlink:href="#5"/><use xlink:href="#6" y="2.171"/><use xlink:href="#7" y="4.342"/><use xlink:href="#8" y="8.684"/><use xlink:href="#9" y="10.855"/><use xlink:href="#10" y="15.197"/><use xlink:href="#11" y="17.368"/><use xlink:href="#12" y="19.539"/><use xlink:href="#13" y="21.71"/><use xlink:href="#14" y="23.881"/><use xlink:href="#15" y="26.052"/><use xlink:href="#16" y="28.223"/><use xlink:href="#17" y="30.394"/><use xlink:href="#18" y="32.565"/><use xlink:href="#19" y="34.736"/><use xlink:href="#20" y="36.907"/><use xlink:href="#21" y="39.078"/><use xlink:href="#22" y="41.249"/><use xlink:href="#23" y="43.42"/><use xlink:href="#24" y="45.591"/><use xlink:href="#25" y="47.762"/><use xlink:href="#26" y="49.933"/><use xlink:href="#27" y="52.104"/><use xlink:href="#28" y="54.275"/><use xlink:href="#29" y="56.446"/><use xlink:href="#30" y="58.617"/><use xlink:href="#31" y="60.788"/></svg><svg x="3429"><use xlink:href="#a"/><use xlink:href="#b" x="-.004" y="62.934"/><use xlink:href="#8"/><use xlink:href="#9" y="2.171"/><use xlink:href="#10" y="6.513"/><use xlink:href="#11" y="8.684"/><use xlink:href="#12" y="10.855"/><use xlink:href="#13" y="13.026"/><use xlink:href="#14" y="15.197"/><use xlink:href="#15" y="17.368"/><use xlink:href="#16" y="19.539"/><use xlink:href="#17" y="21.71"/><use xlink:href="#18" y="23.881"/><use xlink:href="#19" y="26.052"/><use xlink:href="#20" y="28.223"/><use xlink:href="#21" y="30.394"/><use xlink:href="#22" y="32.565"/><use xlink:href="#23" y="34.736"/><use xlink:href="#24" y="36.907"/><use xlink:href="#25" y="39.078"/><use xlink:href="#26" y="41.249"/><use xlink:href="#27" y="43.42"/><use xlink:href="#28" y="45.591"/><use xlink:href="#29" y="47.762"/><use xlink:href="#30" y="49.933"/><use xlink:href="#31" y="52.104"/><use xlink:href="#32" y="54.275"/><use xlink:href="#33" y="56.446"/><use xlink:href="#34" y="58.617"/><use xlink:href="#35" y="60.788"/></svg><svg x="3556"><use xlink:href="#a"/><use xlink:href="#b" x="9.996" y="62.934"/><use xlink:href="#13"/><use xlink:href="#14" y="2.171"/><use xlink:href="#15" y="4.342"/><use xlink:href="#16" y="6.513"/><use xlink:href="#17" y="8.684"/><use xlink:href="#18" y="10.855"/><use xlink:href="#19" y="13.026"/><use xlink:href="#20" y="15.197"/><use xlink:href="#21" y="17.368"/><use xlink:href="#22" y="19.539"/><use xlink:href="#23" y="21.71"/><use xlink:href="#24" y="23.881"/><use xlink:href="#25" y="26.052"/><use xlink:href="#26" y="28.223"/><use xlink:href="#27" y="30.394"/><use xlink:href="#28" y="32.565"/><use xlink:href="#29" y="34.736"/><use xlink:href="#30" y="36.907"/><use xlink:href="#31" y="39.078"/><use xlink:href="#32" y="41.249"/><use xlink:href="#33" y="43.42"/><use xlink:href="#34" y="45.591"/><use xlink:href="#35" y="47.762"/><use xlink:href="#36" y="49.933"/><use xlink:href="#37" y="52.104"/><use xlink:href="#38" y="54.275"/><use xlink:href="#39" y="56.446"/><use xlink:href="#40" y="58.617"/><use xlink:href="#41" y="60.788"/><use xlink:href="#42" y="62.959"/></svg><svg x="3683"><use xlink:href="#a"/><use xlink:href="#b" x="-.004" y="62.934"/><use xlink:href="#19"/><use xlink:href="#20" y="2.171"/><use xlink:href="#21" y="4.342"/><use xlink:href="#22" y="6.513"/><use xlink:href="#23" y="8.684"/><use xlink:href="#24" y="10.855"/><use xlink:href="#25" y="13.026"/><use xlink:href="#26" y="15.197"/><use xlink:href="#27" y="17.368"/><use xlink:href="#28" y="19.539"/><use xlink:href="#29" y="21.71"/><use xlink:href="#30" y="23.881"/><use xlink:href="#31" y="26.052"/><use xlink:href="#32" y="28.223"/><use xlink:href="#33" y="30.394"/><use xlink:href="#34" y="32.565"/><use xlink:href="#35" y="34.736"/><use xlink:href="#36" y="36.907"/><use xlink:href="#37" y="39.078"/><use xlink:href="#38" y="41.249"/><use xlink:href="#39" y="43.42"/><use xlink:href="#40" y="45.591"/><use xlink:href="#41" y="47.762"/><use xlink:href="#42" y="49.933"/><use xlink:href="#43" y="52.104"/><use xlink:href="#44" y="54.275"/><use xlink:href="#45" y="56.446"/><use xlink:href="#46" y="58.617"/><use xlink:href="#47" y="60.788"/></svg><svg x="3810"><use xlink:href="#a"/><use xlink:href="#b" x="-.004" y="62.934"/><use xlink:href="#24"/><use xlink:href="#25" y="2.171"/><use xlink:href="#26" y="4.342"/><use xlink:href="#27" y="6.513"/><use xlink:href="#28" y="8.684"/><use xlink:href="#29" y="10.855"/><use xlink:href="#30" y="13.026"/><use xlink:href="#31" y="15.197"/><use xlink:href="#32" y="17.368"/><use xlink:href="#33" y="19.539"/><use xlink:href="#34" y="21.71"/><use xlink:href="#35" y="23.881"/><use xlink:href="#36" y="26.052"/><use xlink:href="#37" y="28.223"/><use xlink:href="#38" y="30.394"/><use xlink:href="#39" y="32.565"/><use xlink:href="#40" y="34.736"/><use xlink:href="#41" y="36.907"/><use xlink:href="#42" y="39.078"/><use xlink:href="#43" y="41.249"/><use xlink:href="#44" y="43.42"/><use xlink:href="#45" y="45.591"/><use xlink:href="#46" y="47.762"/><use xlink:href="#47" y="49.933"/><use xlink:href="#48" y="52.104"/><use xlink:href="#49" y="54.275"/><use xlink:href="#50" y="56.446"/><use xlink:href="#51" y="58.617"/><use xlink:href="#52" y="60.788"/></svg><svg x="3937"><use xlink:href="#a"/><use xlink:href="#b" x="-.004" y="62.934"/><use xlink:href="#29"/><use xlink:href="#30" y="2.171"/><use xlink:href="#31" y="4.342"/><use xlink:href="#32" y="6.513"/><use xlink:href="#33" y="8.684"/><use xlink:href="#34" y="10.855"/><use xlink:href="#35" y="13.026"/><use xlink:href="#36" y="15.197"/><use xlink:href="#37" y="17.368"/><use xlink:href="#38" y="19.539"/><use xlink:href="#39" y="21.71"/><use xlink:href="#40" y="23.881"/><use xlink:href="#41" y="26.052"/><use xlink:href="#42" y="28.223"/><use xlink:href="#43" y="30.394"/><use xlink:href="#44" y="32.565"/><use xlink:href="#45" y="34.736"/><use xlink:href="#46" y="36.907"/><use xlink:href="#47" y="39.078"/><use xlink:href="#48" y="41.249"/><use xlink:href="#49" y="43.42"/><use xlink:href="#50" y="45.591"/><use xlink:href="#51" y="47.762"/><use xlink:href="#52" y="49.933"/><text y="53.774" class="f">googleads.g.doubleclick.net</text><text y="55.945" class="f">www.facebook.com</text><use xlink:href="#53" y="56.446"/><use xlink:href="#54" y="58.617"/><use xlink:href="#55" y="60.788"/></svg><svg x="4064"><use xlink:href="#a"/><use xlink:href="#b" x="-.004" y="62.934"/><use xlink:href="#53"/><use xlink:href="#54" y="2.171"/><use xlink:href="#55" y="4.342"/><text y="8.183" class="f">t.co</text><text y="10.354" class="f">*.facebook.com</text><text y="12.525" class="f">px.ads.linkedin.com</text><text y="14.696" class="f">use.typekit.net</text><text y="16.867" class="f">snap.licdn.com</text><text y="19.038" class="f">www.google.com</text><text y="21.209" class="f">js.hs-banner.com</text><text y="23.38" class="f">q.quora.com</text><text y="25.551" class="f">www.google.co.in</text><use xlink:href="#56" y="26.052"/><use xlink:href="#57" y="28.223"/><use xlink:href="#58" y="30.394"/><use xlink:href="#59" y="32.565"/><use xlink:href="#60" y="34.736"/><use xlink:href="#61" y="36.907"/><use xlink:href="#62" y="39.078"/><use xlink:href="#63" y="41.249"/><use xlink:href="#64" y="43.42"/><use xlink:href="#65" y="45.591"/><use xlink:href="#66" y="47.762"/><use xlink:href="#67" y="49.933"/><use xlink:href="#68" y="52.104"/><use xlink:href="#69" y="54.275"/><use xlink:href="#70" y="56.446"/><use xlink:href="#71" y="58.617"/><use xlink:href="#72" y="60.788"/></svg><svg x="4191"><use xlink:href="#a"/><use xlink:href="#b" x="-.004" y="62.934"/><use xlink:href="#56"/><use xlink:href="#57" y="2.171"/><use xlink:href="#58" y="4.342"/><use xlink:href="#59" y="6.513"/><use xlink:href="#60" y="8.684"/><use xlink:href="#61" y="10.855"/><use xlink:href="#62" y="13.026"/><use xlink:href="#63" y="15.197"/><use xlink:href="#64" y="17.368"/><use xlink:href="#65" y="19.539"/><use xlink:href="#66" y="21.71"/><use xlink:href="#67" y="23.881"/><use xlink:href="#68" y="26.052"/><use xlink:href="#69" y="28.223"/><use xlink:href="#70" y="30.394"/><use xlink:href="#71" y="32.565"/><use xlink:href="#72" y="34.736"/><use xlink:href="#73" y="36.907"/><use xlink:href="#74" y="39.078"/><use xlink:href="#75" y="41.249"/><use xlink:href="#76" y="43.42"/><use xlink:href="#77" y="45.591"/><use xlink:href="#78" y="47.762"/><use xlink:href="#79" y="49.933"/><use xlink:href="#80" y="52.104"/><use xlink:href="#81" y="54.275"/><use xlink:href="#82" y="56.446"/><use xlink:href="#83" y="58.617"/><use xlink:href="#84" y="60.788"/></svg><svg x="4318"><use xlink:href="#a"/><use xlink:href="#b" x="-.004" y="62.934"/><use xlink:href="#61"/><use xlink:href="#62" y="2.171"/><use xlink:href="#63" y="4.342"/><use xlink:href="#64" y="6.513"/><use xlink:href="#65" y="8.684"/><use xlink:href="#66" y="10.855"/><use xlink:href="#67" y="13.026"/><use xlink:href="#68" y="15.197"/><use xlink:href="#69" y="17.368"/><use xlink:href="#70" y="19.539"/><use xlink:href="#71" y="21.71"/><use xlink:href="#72" y="23.881"/><use xlink:href="#73" y="26.052"/><use xlink:href="#74" y="28.223"/><use xlink:href="#75" y="30.394"/><use xlink:href="#76" y="32.565"/><use xlink:href="#77" y="34.736"/><use xlink:href="#78" y="36.907"/><use xlink:href="#79" y="39.078"/><use xlink:href="#80" y="41.249"/><use xlink:href="#81" y="43.42"/><use xlink:href="#82" y="45.591"/><use xlink:href="#83" y="47.762"/><use xlink:href="#84" y="49.933"/><use xlink:href="#85" y="52.104"/><use xlink:href="#86" y="54.275"/><use xlink:href="#87" y="56.446"/><use xlink:href="#88" y="58.617"/><use xlink:href="#89" y="60.788"/></svg><svg x="4445"><use xlink:href="#a"/><use xlink:href="#b" x="-.004" y="62.934"/><use xlink:href="#65"/><use xlink:href="#66" y="2.171"/><use xlink:href="#67" y="4.342"/><use xlink:href="#68" y="6.513"/><use xlink:href="#69" y="8.684"/><use xlink:href="#70" y="10.855"/><use xlink:href="#71" y="13.026"/><use xlink:href="#72" y="15.197"/><use xlink:href="#73" y="17.368"/><use xlink:href="#74" y="19.539"/><use xlink:href="#75" y="21.71"/><use xlink:href="#76" y="23.881"/><use xlink:href="#77" y="26.052"/><use xlink:href="#78" y="28.223"/><use xlink:href="#79" y="30.394"/><use xlink:href="#80" y="32.565"/><use xlink:href="#81" y="34.736"/><use xlink:href="#82" y="36.907"/><use xlink:href="#83" y="39.078"/><use xlink:href="#84" y="41.249"/><use xlink:href="#85" y="43.42"/><use xlink:href="#86" y="45.591"/><use xlink:href="#87" y="47.762"/><use xlink:href="#88" y="49.933"/><use xlink:href="#89" y="52.104"/><use xlink:href="#90" y="54.275"/><use xlink:href="#91" y="56.446"/><use xlink:href="#92" y="58.617"/><use xlink:href="#93" y="60.788"/></svg><svg x="4572"><use xlink:href="#a"/><use xlink:href="#b" x="-.004" y="62.934"/><use xlink:href="#66"/><use xlink:href="#67" y="2.171"/><use xlink:href="#68" y="4.342"/><use xlink:href="#69" y="6.513"/><use xlink:href="#70" y="8.684"/><use xlink:href="#71" y="10.855"/><use xlink:href="#72" y="13.026"/><use xlink:href="#73" y="15.197"/><use xlink:href="#74" y="17.368"/><use xlink:href="#75" y="19.539"/><use xlink:href="#76" y="21.71"/><use xlink:href="#77" y="23.881"/><use xlink:href="#78" y="26.052"/><use xlink:href="#79" y="28.223"/><use xlink:href="#80" y="30.394"/><use xlink:href="#81" y="32.565"/><use xlink:href="#82" y="34.736"/><use xlink:href="#83" y="36.907"/><use xlink:href="#84" y="39.078"/><use xlink:href="#85" y="41.249"/><use xlink:href="#86" y="43.42"/><use xlink:href="#87" y="45.591"/><use xlink:href="#88" y="47.762"/><use xlink:href="#89" y="49.933"/><use xlink:href="#90" y="52.104"/><use xlink:href="#91" y="54.275"/><use xlink:href="#92" y="56.446"/><use xlink:href="#93" y="58.617"/><use xlink:href="#94" y="60.788"/></svg><svg x="4699"><use xlink:href="#a"/><use xlink:href="#b" x="-.004" y="62.934"/><use xlink:href="#67"/><use xlink:href="#68" y="2.171"/><use xlink:href="#69" y="4.342"/><use xlink:href="#70" y="6.513"/><use xlink:href="#71" y="8.684"/><use xlink:href="#72" y="10.855"/><use xlink:href="#73" y="13.026"/><use xlink:href="#74" y="15.197"/><use xlink:href="#75" y="17.368"/><use xlink:href="#76" y="19.539"/><use xlink:href="#77" y="21.71"/><use xlink:href="#78" y="23.881"/><use xlink:href="#79" y="26.052"/><use xlink:href="#80" y="28.223"/><use xlink:href="#81" y="30.394"/><use xlink:href="#82" y="32.565"/><use xlink:href="#83" y="34.736"/><use xlink:href="#84" y="36.907"/><use xlink:href="#85" y="39.078"/><use xlink:href="#86" y="41.249"/><use xlink:href="#87" y="43.42"/><use xlink:href="#88" y="45.591"/><use xlink:href="#89" y="47.762"/><use xlink:href="#90" y="49.933"/><use xlink:href="#91" y="52.104"/><use xlink:href="#92" y="54.275"/><use xlink:href="#93" y="56.446"/><use xlink:href="#94" y="58.617"/><use xlink:href="#95" y="60.788"/></svg><svg x="4826"><use xlink:href="#a"/><use xlink:href="#b" x="-.004" y="62.934"/><use xlink:href="#73"/><use xlink:href="#74" y="2.171"/><use xlink:href="#75" y="4.342"/><use xlink:href="#76" y="6.513"/><use xlink:href="#77" y="8.684"/><use xlink:href="#78" y="10.855"/><use xlink:href="#79" y="13.026"/><use xlink:href="#80" y="15.197"/><use xlink:href="#81" y="17.368"/><use xlink:href="#82" y="19.539"/><use xlink:href="#83" y="21.71"/><use xlink:href="#84" y="23.881"/><use xlink:href="#85" y="26.052"/><use xlink:href="#86" y="28.223"/><use xlink:href="#87" y="30.394"/><use xlink:href="#88" y="32.565"/><use xlink:href="#89" y="34.736"/><use xlink:href="#90" y="36.907"/><use xlink:href="#91" y="39.078"/><use xlink:href="#92" y="41.249"/><use xlink:href="#93" y="43.42"/><use xlink:href="#94" y="45.591"/><use xlink:href="#95" y="47.762"/><use xlink:href="#96" y="49.933"/><use xlink:href="#97" y="52.104"/><use xlink:href="#98" y="54.275"/><use xlink:href="#99" y="56.446"/><use xlink:href="#100" y="58.617"/><use xlink:href="#101" y="60.788"/></svg><svg x="4953"><use xlink:href="#a"/><use xlink:href="#b" x="-.004" y="62.934"/><use xlink:href="#81"/><use xlink:href="#82" y="2.171"/><use xlink:href="#83" y="4.342"/><use xlink:href="#84" y="6.513"/><use xlink:href="#85" y="8.684"/><use xlink:href="#86" y="10.855"/><use xlink:href="#87" y="13.026"/><use xlink:href="#88" y="15.197"/><use xlink:href="#89" y="17.368"/><use xlink:href="#90" y="19.539"/><use xlink:href="#91" y="21.71"/><use xlink:href="#92" y="23.881"/><use xlink:href="#93" y="26.052"/><use xlink:href="#94" y="28.223"/><use xlink:href="#95" y="30.394"/><use xlink:href="#96" y="32.565"/><use xlink:href="#97" y="34.736"/><use xlink:href="#98" y="36.907"/><use xlink:href="#99" y="39.078"/><use xlink:href="#100" y="41.249"/><use xlink:href="#101" y="43.42"/><use xlink:href="#102" y="45.591"/><use xlink:href="#103" y="47.762"/><use xlink:href="#104" y="49.933"/><use xlink:href="#103" y="52.104"/><use xlink:href="#105" y="54.275"/><use xlink:href="#106" y="56.446"/><use xlink:href="#106" y="58.617"/><use xlink:href="#107" y="60.788"/></svg><svg x="5080"><use xlink:href="#a"/><use xlink:href="#b" x="-.004" y="62.934"/><use xlink:href="#85"/><use xlink:href="#86" y="2.171"/><use xlink:href="#87" y="4.342"/><use xlink:href="#88" y="6.513"/><use xlink:href="#89" y="8.684"/><use xlink:href="#90" y="10.855"/><use xlink:href="#91" y="13.026"/><use xlink:href="#92" y="15.197"/><use xlink:href="#93" y="17.368"/><use xlink:href="#94" y="19.539"/><use xlink:href="#95" y="21.71"/><use xlink:href="#96" y="23.881"/><use xlink:href="#97" y="26.052"/><use xlink:href="#98" y="28.223"/><use xlink:href="#99" y="30.394"/><use xlink:href="#100" y="32.565"/><use xlink:href="#101" y="34.736"/><use xlink:href="#102" y="36.907"/><use xlink:href="#103" y="39.078"/><use xlink:href="#104" y="41.249"/><use xlink:href="#103" y="43.42"/><use xlink:href="#105" y="45.591"/><use xlink:href="#106" y="47.762"/><use xlink:href="#106" y="49.933"/><use xlink:href="#107" y="52.104"/><use xlink:href="#108" y="54.275"/><use xlink:href="#109" y="56.446"/><use xlink:href="#110" y="58.617"/><use xlink:href="#111" y="60.788"/></svg><svg x="5207"><use xlink:href="#a"/><use xlink:href="#b" x="-.004" y="62.934"/><use xlink:href="#90"/><use xlink:href="#91" y="2.171"/><use xlink:href="#92" y="4.342"/><use xlink:href="#93" y="6.513"/><use xlink:href="#94" y="8.684"/><use xlink:href="#95" y="10.855"/><use xlink:href="#96" y="13.026"/><use xlink:href="#97" y="15.197"/><use xlink:href="#98" y="17.368"/><use xlink:href="#99" y="19.539"/><use xlink:href="#100" y="21.71"/><use xlink:href="#101" y="23.881"/><use xlink:href="#102" y="26.052"/><use xlink:href="#103" y="28.223"/><use xlink:href="#104" y="30.394"/><use xlink:href="#103" y="32.565"/><use xlink:href="#105" y="34.736"/><use xlink:href="#106" y="36.907"/><use xlink:href="#106" y="39.078"/><use xlink:href="#107" y="41.249"/><use xlink:href="#108" y="43.42"/><use xlink:href="#109" y="45.591"/><use xlink:href="#110" y="47.762"/><use xlink:href="#111" y="49.933"/><use xlink:href="#112" y="52.104"/><use xlink:href="#113" y="54.275"/><use xlink:href="#114" y="56.446"/><use xlink:href="#115" y="58.617"/><use xlink:href="#116" y="60.788"/></svg><svg x="5334"><use xlink:href="#a"/><use xlink:href="#b" x="-.004" y="62.934"/><use xlink:href="#93"/><use xlink:href="#94" y="2.171"/><use xlink:href="#95" y="4.342"/><use xlink:href="#96" y="6.513"/><use xlink:href="#97" y="8.684"/><use xlink:href="#98" y="10.855"/><use xlink:href="#99" y="13.026"/><use xlink:href="#100" y="15.197"/><use xlink:href="#101" y="17.368"/><use xlink:href="#102" y="19.539"/><use xlink:href="#103" y="21.71"/><use xlink:href="#104" y="23.881"/><use xlink:href="#103" y="26.052"/><use xlink:href="#105" y="28.223"/><use xlink:href="#106" y="30.394"/><use xlink:href="#106" y="32.565"/><use xlink:href="#107" y="34.736"/><use xlink:href="#108" y="36.907"/><use xlink:href="#109" y="39.078"/><use xlink:href="#110" y="41.249"/><use xlink:href="#111" y="43.42"/><use xlink:href="#112" y="45.591"/><use xlink:href="#113" y="47.762"/><use xlink:href="#114" y="49.933"/><use xlink:href="#115" y="52.104"/><use xlink:href="#116" y="54.275"/><use xlink:href="#117" y="56.446"/><use xlink:href="#118" y="58.617"/><use xlink:href="#119" y="60.788"/></svg><svg x="5461"><use xlink:href="#a"/><use xlink:href="#b" x="1.996" y="62.934"/><use xlink:href="#93"/><use xlink:href="#94" y="2.171"/><use xlink:href="#95" y="4.342"/><use xlink:href="#96" y="6.513"/><use xlink:href="#97" y="8.684"/><use xlink:href="#98" y="10.855"/><use xlink:href="#99" y="13.026"/><use xlink:href="#100" y="15.197"/><use xlink:href="#101" y="17.368"/><use xlink:href="#102" y="19.539"/><use xlink:href="#103" y="21.71"/><use xlink:href="#104" y="23.881"/><use xlink:href="#103" y="26.052"/><use xlink:href="#105" y="28.223"/><use xlink:href="#106" y="30.394"/><use xlink:href="#106" y="32.565"/><use xlink:href="#107" y="34.736"/><use xlink:href="#108" y="36.907"/><use xlink:href="#109" y="39.078"/><use xlink:href="#110" y="41.249"/><use xlink:href="#111" y="43.42"/><use xlink:href="#112" y="45.591"/><use xlink:href="#113" y="47.762"/><use xlink:href="#114" y="49.933"/><use xlink:href="#115" y="52.104"/><use xlink:href="#116" y="54.275"/><use xlink:href="#117" y="56.446"/><use xlink:href="#118" y="58.617"/><use xlink:href="#119" y="60.788"/><use xlink:href="#120" y="62.959"/></svg><svg x="5588"><use xlink:href="#a"/><use xlink:href="#b" x="-.004" y="62.934"/><use xlink:href="#94"/><use xlink:href="#95" y="2.171"/><use xlink:href="#96" y="4.342"/><use xlink:href="#97" y="6.513"/><use xlink:href="#98" y="8.684"/><use xlink:href="#99" y="10.855"/><use xlink:href="#100" y="13.026"/><use xlink:href="#101" y="15.197"/><use xlink:href="#102" y="17.368"/><use xlink:href="#103" y="19.539"/><use xlink:href="#104" y="21.71"/><use xlink:href="#103" y="23.881"/><use xlink:href="#105" y="26.052"/><use xlink:href="#106" y="28.223"/><use xlink:href="#106" y="30.394"/><use xlink:href="#107" y="32.565"/><use xlink:href="#108" y="34.736"/><use xlink:href="#109" y="36.907"/><use xlink:href="#110" y="39.078"/><use xlink:href="#111" y="41.249"/><use xlink:href="#112" y="43.42"/><use xlink:href="#113" y="45.591"/><use xlink:href="#114" y="47.762"/><use xlink:href="#115" y="49.933"/><use xlink:href="#116" y="52.104"/><use xlink:href="#117" y="54.275"/><use xlink:href="#118" y="56.446"/><use xlink:href="#119" y="58.617"/><use xlink:href="#120" y="60.788"/></svg><svg x="5715"><use xlink:href="#a"/><use xlink:href="#b" x="55.996" y="62.934"/><use xlink:href="#94"/><use xlink:href="#95" y="2.171"/><use xlink:href="#96" y="4.342"/><use xlink:href="#97" y="6.513"/><use xlink:href="#98" y="8.684"/><use xlink:href="#99" y="10.855"/><use xlink:href="#100" y="13.026"/><use xlink:href="#101" y="15.197"/><use xlink:href="#102" y="17.368"/><use xlink:href="#103" y="19.539"/><use xlink:href="#104" y="21.71"/><use xlink:href="#103" y="23.881"/><use xlink:href="#105" y="26.052"/><use xlink:href="#106" y="28.223"/><use xlink:href="#106" y="30.394"/><use xlink:href="#107" y="32.565"/><use xlink:href="#108" y="34.736"/><use xlink:href="#109" y="36.907"/><use xlink:href="#110" y="39.078"/><use xlink:href="#111" y="41.249"/><use xlink:href="#112" y="43.42"/><use xlink:href="#113" y="45.591"/><use xlink:href="#114" y="47.762"/><use xlink:href="#115" y="49.933"/><use xlink:href="#116" y="52.104"/><use xlink:href="#117" y="54.275"/><use xlink:href="#118" y="56.446"/><use xlink:href="#119" y="58.617"/><use xlink:href="#120" y="60.788"/><use xlink:href="#121" y="62.959"/></svg><svg x="5842"><use xlink:href="#a"/><use xlink:href="#b" x="-.004" y="62.934"/><use xlink:href="#96"/><use xlink:href="#97" y="2.171"/><use xlink:href="#98" y="4.342"/><use xlink:href="#99" y="6.513"/><use xlink:href="#100" y="8.684"/><use xlink:href="#101" y="10.855"/><use xlink:href="#102" y="13.026"/><use xlink:href="#103" y="15.197"/><use xlink:href="#104" y="17.368"/><use xlink:href="#103" y="19.539"/><use xlink:href="#105" y="21.71"/><use xlink:href="#106" y="23.881"/><use xlink:href="#106" y="26.052"/><use xlink:href="#107" y="28.223"/><use xlink:href="#108" y="30.394"/><use xlink:href="#109" y="32.565"/><use xlink:href="#110" y="34.736"/><use xlink:href="#111" y="36.907"/><use xlink:href="#112" y="39.078"/><use xlink:href="#113" y="41.249"/><use xlink:href="#114" y="43.42"/><use xlink:href="#115" y="45.591"/><use xlink:href="#116" y="47.762"/><use xlink:href="#117" y="49.933"/><use xlink:href="#118" y="52.104"/><use xlink:href="#119" y="54.275"/><use xlink:href="#120" y="56.446"/><use xlink:href="#121" y="58.617"/><text y="62.458" class="f">exit</text></svg></svg></g></g></svg></svg>