<?xml version="1.0" encoding="UTF-8" standalone="no"?>
<svg
   xmlns:dc="http://purl.org/dc/elements/1.1/"
   xmlns:cc="http://creativecommons.org/ns#"
   xmlns:rdf="http://www.w3.org/1999/02/22-rdf-syntax-ns#"
   xmlns:svg="http://www.w3.org/2000/svg"
   xmlns="http://www.w3.org/2000/svg"
   id="svg62"
   xml:space="preserve"
   viewBox="0 0 550 445"
   height="445"
   width="550"
   version="1.1"><metadata
     id="metadata66"><rdf:RDF><cc:Work
         rdf:about=""><dc:format>image/svg+xml</dc:format><dc:type
           rdf:resource="http://purl.org/dc/dcmitype/StillImage" /></cc:Work></rdf:RDF></metadata><defs
     id="defs4"><style
       id="style2"
       type="text/css">@import url(&quot;https://fonts.googleapis.com/css2?family=Arima+Madurai:wght@400&quot;);</style></defs><defs
     id="defs6" /><g
     id="container-filled"
     transform="matrix(1 0 0 1 156.07 222.5)"><linearGradient
       y2="122.39999999999999"
       x2="0"
       y1="0"
       x1="0"
       gradientTransform="matrix(1 0 0 1 -66 -66)"
       gradientUnits="userSpaceOnUse"
       id="SVGID_21"><stop
         id="stop8"
         style="stop-color:rgb(224,224,224);stop-opacity: 1"
         offset="0%" /></linearGradient><circle
       id="circle11"
       r="66"
       cy="0"
       cx="0"
       style="stroke: none; stroke-width: 1; stroke-dasharray: none; stroke-linecap: butt; stroke-dashoffset: 0; stroke-linejoin: miter; stroke-miterlimit: 4; fill: url(#SVGID_21); fill-rule: nonzero; opacity: 1;" /></g><g
     id="icon"
     transform="matrix(0.21 0 0 0.21 156.07 222.5)"><g
       id="g41"
       style=""><g
         id="icon_piece"
         transform="matrix(1 0 0 1 -48.66 -151.97)"><linearGradient
           y2="208.04"
           x2="150.24314635540165"
           y1="0"
           x1="0"
           gradientTransform="matrix(1 0 0 1 132.22 0.01)"
           gradientUnits="userSpaceOnUse"
           id="SVGID_17"><stop
             id="stop14"
             style="stop-color:rgb(33,150,243);stop-opacity: 1"
             offset="0%" /></linearGradient><path
           id="path17"
           stroke-linecap="round"
           d="m 145.049 177.31 c 18.782 -18.942 37.139 -34.68 50.544 -46.172 c 5.881 -5.042 10.96 -9.396 14.949 -13.044 c 22.457 -20.526 25.41 -39.38 23.932 -51.581 c -1.55 -12.804 -9.142 -24.673 -19.341 -30.238 c -14.879 -8.117 -30.517 -2.873 -41.709 3.623 c 1.774 -4.108 4.3 -8.031 7.471 -11.49 c 7.922 -8.641 18.806 -13.399 30.646 -13.399 c 30.118 0 42.354 22.309 42.842 23.223 c 0.086 0.166 0.178 0.328 0.276 0.487 c 30.345 49.159 0.664 95.758 -30.759 145.093 c -2.696 4.233 -5.401 8.481 -8.081 12.747 c -2.203 3.508 -1.145 8.138 2.362 10.341 c 1.24 0.778 2.619 1.149 3.982 1.149 c 2.494 0 4.934 -1.244 6.358 -3.512 c 2.662 -4.239 5.351 -8.461 8.03 -12.667 c 32.488 -51.009 66.084 -103.748 30.988 -160.839 c -1.851 -3.382 -18.142 -31.022 -56 -31.022 c -16.096 0 -30.906 6.485 -41.703 18.263 c -10.107 11.024 -15.434 25.745 -14.248 39.377 c 0.252 2.899 2.164 5.387 4.896 6.388 c 2.733 1.002 5.803 0.326 7.869 -1.724 c 0.224 -0.223 22.607 -22.136 39.593 -12.869 c 4.982 2.719 10.513 9.608 11.635 18.874 c 1.511 12.482 -5.114 25.866 -19.162 38.706 c -3.813 3.486 -8.809 7.769 -14.593 12.726 c -13.598 11.658 -32.222 27.625 -51.432 46.998 c -2.916 2.941 -2.895 7.69 0.045 10.607 c 2.944 2.916 7.692 2.898 10.61 -0.045 z"
           transform=" translate(-207.34, -104.03)"
           style="stroke: none; stroke-width: 1; stroke-dasharray: none; stroke-linecap: butt; stroke-dashoffset: 0; stroke-linejoin: miter; stroke-miterlimit: 4; fill: url(#SVGID_17); fill-rule: nonzero; opacity: 1;" /></g><g
         id="g25"
         transform="matrix(1 0 0 1 127.53 2.23)"><linearGradient
           y2="34.19399999999999"
           x2="28.133937024564545"
           y1="0"
           x1="0"
           gradientTransform="matrix(1 0 0 1 369.47 241.13)"
           gradientUnits="userSpaceOnUse"
           id="SVGID_18"><stop
             id="stop20"
             style="stop-color:rgb(33,150,243);stop-opacity: 1"
             offset="0%" /></linearGradient><path
           id="path23"
           stroke-linecap="round"
           d="m 376.968 275.327 c 0.87 0 1.755 -0.152 2.618 -0.474 c 0.828 -0.31 8.227 -3.212 12.712 -9.938 c 5.152 -7.727 5.301 -15.43 5.301 -16.282 c 0 -4.143 -3.357 -7.5 -7.5 -7.5 s -7.5 3.357 -7.5 7.5 c 0 0.038 -0.163 4.035 -2.781 7.961 c -1.521 2.28 -4.507 3.824 -5.47 4.203 c -3.881 1.446 -5.855 5.766 -4.409 9.647 c 1.124 3.017 3.987 4.883 7.029 4.883 z"
           transform=" translate(-383.53, -258.23)"
           style="stroke: none; stroke-width: 1; stroke-dasharray: none; stroke-linecap: butt; stroke-dashoffset: 0; stroke-linejoin: miter; stroke-miterlimit: 4; fill: url(#SVGID_18); fill-rule: nonzero; opacity: 1;" /></g><g
         id="g32"
         transform="matrix(1 0 0 1 65.5 86.96)"><linearGradient
           y2="45.12016245541281"
           x2="43.58652382035717"
           y1="0"
           x1="0"
           gradientTransform="matrix(1 0 0 1 299.71 320.4)"
           gradientUnits="userSpaceOnUse"
           id="SVGID_19"><stop
             id="stop27"
             style="stop-color:rgb(33,150,243);stop-opacity: 1"
             offset="0%" /></linearGradient><path
           id="path30"
           stroke-linecap="round"
           d="m 307.203 365.523 c 0.65 0 1.312 -0.085 1.97 -0.264 c 6.878 -1.867 14.624 -6.962 21.251 -13.978 c 6.537 -6.92 11.163 -14.85 12.691 -21.757 c 0.895 -4.044 -1.658 -8.048 -5.703 -8.943 c -4.051 -0.893 -8.048 1.658 -8.943 5.703 c -0.729 3.297 -3.464 8.89 -8.949 14.696 c -5.552 5.878 -11.015 8.918 -14.276 9.803 c -3.997 1.085 -6.358 5.205 -5.273 9.203 c 0.906 3.34 3.931 5.537 7.232 5.537 z"
           transform=" translate(-321.5, -342.96)"
           style="stroke: none; stroke-width: 1; stroke-dasharray: none; stroke-linecap: butt; stroke-dashoffset: 0; stroke-linejoin: miter; stroke-miterlimit: 4; fill: url(#SVGID_19); fill-rule: nonzero; opacity: 1;" /></g><g
         id="g39"
         transform="matrix(1 0 0 1 0 34.68)"><linearGradient
           y2="442.62077179448363"
           x2="512.0014081005886"
           y1="0"
           x1="0"
           gradientTransform="matrix(1 0 0 1 0 69.37)"
           gradientUnits="userSpaceOnUse"
           id="SVGID_20"><stop
             id="stop34"
             style="stop-color:rgb(33,150,243);stop-opacity: 1"
             offset="0%" /></linearGradient><path
           id="path37"
           stroke-linecap="round"
           d="m 507.402 419.028 c -2.897 -2.196 -6.564 -2.892 -10.059 -1.909 c -5.387 1.517 -8.841 4.549 -11.616 6.985 c -2.498 2.193 -4.107 3.571 -6.79 4.021 c -14.3 -13.454 -22.361 -29.313 -23.945 -47.19 c -0.365 -4.125 -4 -7.163 -8.133 -6.809 c -4.126 0.365 -7.174 4.007 -6.809 8.133 c 1.078 12.163 4.604 23.505 10.486 33.959 c -0.423 -0.018 -0.845 -0.038 -1.287 -0.038 c -9.728 0 -14.945 4.58 -18.755 7.924 c -3.082 2.706 -4.78 4.197 -8.859 4.197 c -4.077 0 -5.775 -1.49 -8.857 -4.196 c -3.81 -3.345 -9.025 -7.925 -18.754 -7.925 c -9.728 0 -14.945 4.58 -18.755 7.925 c -3.082 2.706 -4.78 4.196 -8.857 4.196 c -4.078 0 -5.776 -1.49 -8.858 -4.197 c -2.446 -2.147 -5.479 -4.797 -9.906 -6.424 c 7.66 -52.559 46.3 -88.068 46.699 -88.429 c 0.098 -0.088 0.192 -0.178 0.286 -0.271 c 40.39 -40.391 54.722 -87.958 54.722 -116.417 c 0 -26.995 -8.533 -48.728 -25.361 -64.595 c -31.364 -29.573 -80.354 -27.997 -85.278 -27.76 c -2.519 -0.021 -17.276 0.246 -31.202 9.416 c 5.437 -14.197 17.43 -31.307 43.818 -40.261 c 31.362 -10.644 73.473 -3.595 102.409 17.142 c 19.726 14.136 43.241 41.207 43.241 89.896 c 0 0.071 0.001 0.15 0.003 0.222 c 0.019 0.634 1.308 64.093 -41.071 124.783 c -4.607 6.597 -8.532 14.649 -11.352 23.287 c -1.285 3.938 0.865 8.172 4.803 9.457 c 0.773 0.252 1.558 0.372 2.328 0.372 c 3.158 0 6.096 -2.011 7.129 -5.175 c 2.334 -7.152 5.669 -14.025 9.39 -19.352 c 44.813 -64.175 43.881 -129.5 43.77 -133.7 c -0.036 -54.987 -26.935 -85.808 -49.504 -101.982 c -33.141 -23.749 -79.745 -31.446 -115.966 -19.153 c -35.09 11.907 -49.171 36.103 -54.802 54.299 c -1.771 5.709 0.348 11.812 5.274 15.188 c 4.941 3.387 11.421 3.158 16.119 -0.568 c 11.361 -9.011 25.115 -8.887 25.499 -8.869 c 0.023 0 0.046 -0.002 0.069 -0.002 c 0.051 0.001 0.101 0.008 0.153 0.008 c 12.935 0 23.972 3.667 32.905 10.917 c -4.544 7.675 -5.361 19.417 -1.611 31.527 c 3.715 11.956 10.893 21.141 18.906 24.969 c -0.442 2.565 -1.005 5.15 -1.687 7.744 c -13.052 -0.193 -28.338 10.493 -38.382 27.899 c -9.076 15.719 -11.452 32.365 -6.712 43.805 c -1.259 1.33 -2.541 2.664 -3.843 3.998 c -16.273 -5.001 -38.379 4.253 -55 23.736 c -14.723 17.247 -21.071 38.12 -16.578 53.382 c -12.771 23.943 -16.716 46.782 -17.894 60.352 c -6.347 -3.804 -14.977 -9.698 -23.741 -17.902 l 15.426 -34.451 c 1.039 -2.321 0.832 -5.01 -0.551 -7.144 c -1.382 -2.134 -3.751 -3.422 -6.294 -3.422 h -39.283 c -3.113 -8.228 -5.281 -16.877 -6.435 -25.786 c -2.384 -18.454 -0.539 -38.51 5.483 -59.611 c 3.576 -12.534 9.272 -25.941 17.415 -40.988 c 1.971 -3.643 0.615 -8.194 -3.027 -10.166 c -3.644 -1.97 -8.194 -0.614 -10.166 3.027 c -8.667 16.018 -14.767 30.415 -18.645 44.01 c -6.585 23.073 -8.583 45.16 -5.936 65.652 c 1.059 8.175 2.885 16.158 5.415 23.861 h -80.758 v -127.65 c 7.118 -10.122 15.1 -20.335 23.771 -30.388 c 2.705 -3.137 2.355 -7.872 -0.781 -10.578 c -3.137 -2.704 -7.872 -2.356 -10.578 0.781 c -4.307 4.994 -8.445 10.03 -12.412 15.078 v -19.548 c 0 -4.143 -3.357 -7.5 -7.5 -7.5 s -7.5 3.357 -7.5 7.5 v 8.014 l -81.754 135.592 c -1.396 2.317 -1.437 5.206 -0.107 7.561 s 3.825 3.811 6.53 3.811 h 29.344 c -0.688 5.779 -1.135 11.567 -1.345 17.324 h -27.999 c -2.543 0 -4.912 1.288 -6.294 3.422 c -1.383 2.134 -1.59 4.822 -0.551 7.144 l 22.555 50.374 c -2.247 -1.737 -4.97 -3.428 -8.568 -4.441 c -3.492 -0.983 -7.158 -0.289 -10.06 1.906 c -2.911 2.205 -4.582 5.563 -4.582 9.214 v 76.25 c 0 4.143 3.357 7.5 7.5 7.5 h 496.984 c 4.143 0 7.5 -3.357 7.5 -7.5 v -76.25 c 0 -3.65 -1.67 -7.008 -4.582 -9.213 z m -225.519 -58.229 c -3.778 -8.55 -0.552 -25.465 12.927 -41.254 c 14.829 -17.383 33.157 -22.923 41.639 -18.081 c 2.932 1.67 6.621 1.182 9.014 -1.205 c 4.015 -4.005 7.895 -8.049 11.535 -12.02 c 2.488 -2.716 2.637 -6.837 0.35 -9.725 c -4.068 -5.137 -3.462 -18.79 4.598 -32.747 c 8.71 -15.094 21.527 -22.614 27.589 -19.916 c 1.931 0.857 4.134 0.862 6.068 0.011 c 1.935 -0.852 3.42 -2.479 4.091 -4.483 c 2.645 -7.897 4.36 -15.838 5.102 -23.599 c 0.204 -2.13 -0.513 -4.245 -1.968 -5.813 c -1.421 -1.531 -3.413 -2.399 -5.498 -2.399 c -0.064 0 -0.13 0.002 -0.193 0.002 c -2.755 0 -9.296 -5.422 -12.693 -16.356 c -3.507 -11.328 -0.975 -19.551 1.366 -20.781 c 2.068 -1.088 3.512 -3.078 3.903 -5.382 c 0.186 -1.091 0.125 -2.194 -0.159 -3.234 c 8.586 3.48 17.036 8.341 24.207 15.119 c 13.666 12.917 20.596 30.96 20.596 53.629 c 0 5.674 -1.409 56.805 -50.203 105.684 c -3.362 3.07 -43.774 41.058 -51.545 98.634 c -5.922 1.408 -9.654 4.672 -12.56 7.223 c -3.082 2.706 -4.779 4.196 -8.856 4.196 c -4.076 0 -5.773 -1.49 -8.855 -4.196 c -3.809 -3.345 -9.024 -7.925 -18.752 -7.925 c -9.727 0 -14.943 4.58 -18.752 7.925 c -0.325 0.286 -0.628 0.55 -0.927 0.808 c 1.115 -12.593 4.924 -34.798 17.653 -57.404 c 1.158 -2.061 1.279 -4.548 0.323 -6.711 z m -199.052 -135.414 v 102.914 h -62.051 z m -30.867 117.914 h 30.867 v 17.324 h -32.326 c 0.226 -5.756 0.718 -11.547 1.459 -17.324 z m 170.229 32.324 l -23.508 52.502 c -2.679 -0.451 -4.286 -1.828 -6.782 -4.02 c -3.809 -3.345 -9.025 -7.925 -18.753 -7.925 c -9.727 0 -14.943 4.58 -18.752 7.925 c -3.082 2.706 -4.779 4.196 -8.856 4.196 s -5.774 -1.49 -8.856 -4.196 c -3.809 -3.345 -9.025 -7.925 -18.753 -7.925 s -14.943 4.58 -18.752 7.925 c -3.082 2.706 -4.779 4.196 -8.855 4.196 c -4.077 0 -5.775 -1.49 -8.857 -4.196 c -3.81 -3.345 -9.025 -7.925 -18.754 -7.925 c -9.727 0 -14.943 4.58 -18.752 7.925 c -0.849 0.745 -1.59 1.388 -2.308 1.943 l -22.578 -50.426 h 203.116 z m 274.791 121.367 h -481.984 v -62.787 c 0.421 0.355 0.868 0.745 1.355 1.173 c 3.809 3.345 9.024 7.925 18.751 7.925 s 14.943 -4.58 18.752 -7.925 c 3.082 -2.706 4.779 -4.196 8.855 -4.196 c 4.077 0 5.775 1.49 8.857 4.196 c 3.809 3.345 9.025 7.925 18.754 7.925 c 9.727 0 14.943 -4.58 18.752 -7.925 c 3.082 -2.706 4.779 -4.196 8.855 -4.196 c 4.077 0 5.774 1.49 8.856 4.196 c 3.809 3.345 9.025 7.925 18.753 7.925 s 14.944 -4.58 18.753 -7.925 c 3.082 -2.706 4.779 -4.196 8.855 -4.196 c 4.077 0 5.774 1.49 8.856 4.196 c 3.809 3.345 9.025 7.925 18.753 7.925 s 14.944 -4.58 18.753 -7.925 c 3.082 -2.706 4.779 -4.196 8.856 -4.196 s 5.774 1.49 8.856 4.196 c 3.809 3.345 9.025 7.925 18.754 7.925 c 0.013 0 0.025 -0.001 0.038 -0.001 v 0.003 c 0.024 0 0.047 -0.005 0.071 -0.005 c 9.655 -0.035 14.849 -4.59 18.643 -7.922 c 3.081 -2.706 4.777 -4.196 8.853 -4.196 s 5.773 1.49 8.855 4.196 c 3.809 3.345 9.024 7.925 18.752 7.925 s 14.944 -4.58 18.753 -7.925 c 3.082 -2.706 4.779 -4.196 8.856 -4.196 s 5.775 1.49 8.857 4.196 c 3.81 3.345 9.026 7.925 18.755 7.925 c 9.727 0 14.944 -4.58 18.754 -7.925 c 3.082 -2.706 4.78 -4.196 8.858 -4.196 c 4.077 0 5.775 1.49 8.857 4.196 c 3.809 3.345 9.025 7.925 18.754 7.925 c 9.728 0 14.946 -4.58 18.756 -7.925 c 3.082 -2.706 4.78 -4.196 8.858 -4.196 c 4.079 0 5.777 1.491 8.861 4.197 c 3.81 3.344 9.026 7.924 18.756 7.924 s 14.946 -4.58 18.756 -7.925 c 0.489 -0.429 0.938 -0.82 1.361 -1.177 v 62.791 z"
           transform=" translate(-256, -290.68)"
           style="stroke: none; stroke-width: 1; stroke-dasharray: none; stroke-linecap: butt; stroke-dashoffset: 0; stroke-linejoin: miter; stroke-miterlimit: 4; fill: url(#SVGID_20); fill-rule: nonzero; opacity: 1;" /></g></g></g><g
     id="logo-name"
     style=""
     transform="matrix(2.56 0 0 2.56 342.78 223.78)"><linearGradient
       y2="33.89999999999999"
       x2="0"
       y1="0"
       x1="0"
       gradientTransform="matrix(1 0 0 1 -41.92 -16.95)"
       gradientUnits="userSpaceOnUse"
       id="SVGID_2"><stop
         id="stop44"
         style="stop-color:rgb(0,0,0);stop-opacity: 1"
         offset="0%" /></linearGradient><text
       id="text59"
       style="stroke: none; stroke-width: 1; stroke-dasharray: none; stroke-linecap: butt; stroke-dashoffset: 0; stroke-linejoin: miter; stroke-miterlimit: 4; fill: url(#SVGID_2); fill-rule: nonzero; opacity: 1; white-space: pre;"
       font-weight="normal"
       font-style="normal"
       font-size="30"
       font-family="Arima Madurai"
       xml:space="preserve"><tspan
         id="tspan47"
         y="9.42"
         x="-41.92">S</tspan><tspan
         id="tspan49"
         y="9.42"
         x="-23.14">c</tspan><tspan
         id="tspan51"
         y="9.42"
         x="-5.98">i</tspan><tspan
         id="tspan53"
         y="9.42"
         x="3.97">l</tspan><tspan
         id="tspan55"
         y="9.42"
         x="14.47">l</tspan><tspan
         id="tspan57"
         y="9.42"
         x="24.97">a</tspan></text>
</g></svg>